<?xml version="1.0" encoding="utf-8"?>
<!-- Generator: Adobe Illustrator 17.0.0, SVG Export Plug-In . SVG Version: 6.00 Build 0)  -->
<!DOCTYPE svg PUBLIC "-//W3C//DTD SVG 1.1//EN" "http://www.w3.org/Graphics/SVG/1.1/DTD/svg11.dtd">
<svg version="1.1" id="Layer_1" xmlns="http://www.w3.org/2000/svg" xmlns:xlink="http://www.w3.org/1999/xlink" x="0px" y="0px"
	 width="128px" height="128px" viewBox="0 0 128 128" enable-background="new 0 0 128 128" xml:space="preserve">
<g id="Layer_1">
	<g>
		<path fill="#6200EA" d="M105.808,6.035c-2.574,0.763-25.532,7.998-38.577,27.006C66.203,34.539,65.092,36.3,64,38.393
			c-1.092-2.093-2.203-3.854-3.231-5.352C47.724,14.034,24.766,6.798,22.191,6.035L5.5,1.092V122.5h52h13h52V1.092L105.808,6.035z"
			/>
		<g>
			<path fill="#6200EA" d="M18.5,18.5v91h13v-13V39.721c2.901,2.22,5.676,4.888,7.831,8.031c2.556,3.726,5.169,9.188,5.169,21.476
				V96.5v13h13V69.229c0-15.504-3.741-23.429-7.449-28.832C39.237,24.641,18.5,18.5,18.5,18.5z"/>
			<path fill="#6200EA" d="M77.949,40.397C74.242,45.8,70.5,53.725,70.5,69.228V109.5h13v-13V69.228
				c0-12.288,2.613-17.75,5.169-21.476c2.156-3.143,4.93-5.808,7.831-8.031V96.5v13h13v-91C109.5,18.5,88.763,24.641,77.949,40.397z
				"/>
		</g>
	</g>
	<g>
		<path fill="#4527A0" d="M105.808,6.035c-2.574,0.763-25.532,7.998-38.577,27.006C66.203,34.539,65.092,36.3,64,38.393
			c-1.092-2.093-2.203-3.854-3.231-5.352C47.724,14.034,24.766,6.798,22.191,6.035L5.5,1.092V122.5h52h13h52V1.092L105.808,6.035z"
			/>
		<g>
			<path fill="#FFFFFF" d="M18.5,18.5v91h13v-13V39.721c2.901,2.22,5.676,4.888,7.831,8.031c2.556,3.726,5.169,9.188,5.169,21.476
				V96.5v13h13V69.229c0-15.504-3.741-23.429-7.449-28.832C39.237,24.641,18.5,18.5,18.5,18.5z"/>
			<path fill="#FFFFFF" d="M77.949,40.397C74.242,45.8,70.5,53.725,70.5,69.228V109.5h13v-13V69.228
				c0-12.288,2.613-17.75,5.169-21.476c2.156-3.143,4.93-5.808,7.831-8.031V96.5v13h13v-91C109.5,18.5,88.763,24.641,77.949,40.397z
				"/>
		</g>
	</g>
</g>
</svg>
