<?xml version="1.0" encoding="utf-8"?>
<!-- Generator: Adobe Illustrator 17.0.0, SVG Export Plug-In . SVG Version: 6.00 Build 0)  -->
<!DOCTYPE svg PUBLIC "-//W3C//DTD SVG 1.1//EN" "http://www.w3.org/Graphics/SVG/1.1/DTD/svg11.dtd">
<svg version="1.1" id="Layer_1" xmlns="http://www.w3.org/2000/svg" xmlns:xlink="http://www.w3.org/1999/xlink" x="0px" y="0px"
	 width="200px" height="200px" viewBox="0 0 200 200" enable-background="new 0 0 200 200" xml:space="preserve">
<g>
	<path fill="none" stroke="#A8AAAD" stroke-width="2" stroke-linecap="round" stroke-miterlimit="10" d="M16.709,28.508
		C16.253,27.43,16,26.245,16,25c0-4.971,4.029-9,9-9s9,4.029,9,9s-4.029,9-9,9"/>
	<polyline fill="none" stroke="#A8AAAD" stroke-width="2" stroke-linecap="round" stroke-miterlimit="10" points="20.618,24.398 
		16.895,29.441 11.852,25.718 	"/>
</g>
<rect fill="none" width="50" height="50"/>
<g>
	<path fill="none" stroke="#448AFF" stroke-width="2" stroke-linecap="round" stroke-miterlimit="10" d="M66.709,28.508
		C66.253,27.43,66,26.245,66,25c0-4.971,4.029-9,9-9s9,4.029,9,9s-4.029,9-9,9"/>
	<polyline fill="none" stroke="#448AFF" stroke-width="2" stroke-linecap="round" stroke-miterlimit="10" points="70.618,24.398 
		66.895,29.441 61.852,25.718 	"/>
</g>
<rect x="50" fill="none" width="50" height="50"/>
<rect y="50" fill="none" width="50" height="50"/>
<rect x="100" fill="none" width="50" height="50"/>
<rect x="100" y="150" fill="none" width="50" height="50"/>
<rect x="50" y="150" fill="none" width="50" height="50"/>
<polygon fill="#999999" points="130.675,34.761 119.325,34.761 116.56,15.239 133.44,15.239 "/>
<rect x="150" fill="none" width="50" height="50"/>
<rect x="150" y="150" fill="none" width="50" height="50"/>
<polygon fill="#FF1744" points="180.675,34.761 169.325,34.761 166.56,15.239 183.44,15.239 "/>
<line fill="none" stroke="#999999" stroke-width="2" stroke-linecap="round" stroke-miterlimit="10" x1="20.5" y1="79.5" x2="29.5" y2="70.5"/>
<line fill="none" stroke="#999999" stroke-width="2" stroke-linecap="round" stroke-miterlimit="10" x1="29.5" y1="79.5" x2="20.5" y2="70.5"/>
<rect x="50" y="50" fill="none" width="50" height="50"/>
<rect x="100" y="50" fill="none" width="50" height="50"/>
<line fill="none" stroke="#FF1744" stroke-width="2" stroke-linecap="round" stroke-miterlimit="10" x1="70.5" y1="79.5" x2="79.5" y2="70.5"/>
<line fill="none" stroke="#FF1744" stroke-width="2" stroke-linecap="round" stroke-miterlimit="10" x1="79.5" y1="79.5" x2="70.5" y2="70.5"/>
<circle fill="none" stroke="#999999" stroke-width="2" stroke-miterlimit="10" cx="125" cy="75" r="3.5"/>
<rect x="150" y="50" fill="none" width="50" height="50"/>
<rect y="100" fill="none" width="50" height="50"/>
<rect x="50" y="100" fill="none" width="150" height="50"/>
<rect y="150" fill="none" width="50" height="50"/>
<g>
	<path fill="#BCBEC0" stroke="#448AFF" stroke-miterlimit="10" d="M165.293,75"/>
	
		<line fill="none" stroke="#448AFF" stroke-width="2" stroke-linecap="round" stroke-miterlimit="10" x1="165" y1="75" x2="185" y2="75"/>
	
		<line fill="none" stroke="#448AFF" stroke-width="2" stroke-linecap="round" stroke-miterlimit="10" x1="165" y1="75" x2="169.5" y2="70.5"/>
	
		<line fill="none" stroke="#448AFF" stroke-width="2" stroke-linecap="round" stroke-miterlimit="10" x1="169.5" y1="79.5" x2="165" y2="75"/>
</g>
<g>
	
		<line fill="none" stroke="#69F0AE" stroke-width="2" stroke-linecap="round" stroke-miterlimit="10" x1="25" y1="119" x2="25" y2="131"/>
	
		<line fill="none" stroke="#69F0AE" stroke-width="2" stroke-linecap="round" stroke-miterlimit="10" x1="31" y1="125" x2="19" y2="125"/>
</g>
<g>
	<path fill="#B0BEC5" d="M18.869,164.625C14.115,157.699,5,155,5,155v40h5.714v-5.714v-24.958c1.275,0.976,2.495,2.149,3.442,3.53
		c1.123,1.638,2.272,4.039,2.272,9.44v11.987V195h5.714v-17.702C22.143,170.483,20.498,167,18.869,164.625z"/>
	<path fill="#B0BEC5" d="M31.131,164.625c-1.63,2.375-3.274,5.858-3.274,12.673V195h5.714v-5.714v-11.987
		c0-5.401,1.149-7.802,2.272-9.44c0.947-1.382,2.167-2.553,3.442-3.53v24.958V195H45v-40C45,155,35.885,157.699,31.131,164.625z"/>
</g>
<g>
	<g>
		<path fill="#999999" d="M122.488,182.5v-6.271h-5.847v6.271h-3.623v-15h3.623v5.678h5.847V167.5h3.622v15H122.488z"/>
	</g>
	<polygon fill="#999999" points="131.366,179.65 131.366,170.35 136.983,175 	"/>
</g>
<g>
	<g>
		<path fill="#448AFF" d="M172.488,182.5v-6.271h-5.847v6.271h-3.623v-15h3.623v5.678h5.847V167.5h3.622v15H172.488z"/>
	</g>
	<polygon fill="#448AFF" points="181.366,179.65 181.366,170.35 186.983,175 	"/>
</g>
</svg>
