<?xml version="1.0" encoding="utf-8"?>
<!-- Generator: Adobe Illustrator 17.0.0, SVG Export Plug-In . SVG Version: 6.00 Build 0)  -->
<!DOCTYPE svg PUBLIC "-//W3C//DTD SVG 1.1//EN" "http://www.w3.org/Graphics/SVG/1.1/DTD/svg11.dtd">
<svg version="1.1" id="Layer_1" xmlns="http://www.w3.org/2000/svg" xmlns:xlink="http://www.w3.org/1999/xlink" x="0px" y="0px"
	 width="500px" height="200px" viewBox="0 0 500 200" enable-background="new 0 0 500 200" xml:space="preserve">
<g>
	<path fill="none" stroke="#A8AAAD" stroke-width="2" stroke-linecap="round" stroke-miterlimit="10" d="M16.709,28.508
		C16.253,27.43,16,26.245,16,25c0-4.971,4.029-9,9-9s9,4.029,9,9s-4.029,9-9,9"/>
	<polyline fill="none" stroke="#A8AAAD" stroke-width="2" stroke-linecap="round" stroke-miterlimit="10" points="20.618,24.398 
		16.895,29.441 11.852,25.718 	"/>
</g>
<rect fill="none" width="50" height="50"/>
<rect y="50" fill="none" width="50" height="50"/>
<rect x="50" fill="none" width="50" height="50"/>
<polygon fill="#999999" points="80.675,34.761 69.325,34.761 66.56,15.239 83.44,15.239 "/>
<rect x="100" fill="none" width="50" height="50"/>
<polygon fill="#FF1744" points="130.675,34.761 119.325,34.761 116.56,15.239 133.44,15.239 "/>
<line fill="none" stroke="#999999" stroke-width="2" stroke-linecap="round" stroke-miterlimit="10" x1="20.5" y1="79.5" x2="29.5" y2="70.5"/>
<line fill="none" stroke="#999999" stroke-width="2" stroke-linecap="round" stroke-miterlimit="10" x1="29.5" y1="79.5" x2="20.5" y2="70.5"/>
<rect x="50" y="50" fill="none" width="50" height="50"/>
<rect x="100" y="50" fill="none" width="50" height="50"/>
<line fill="none" stroke="#FF1744" stroke-width="2" stroke-linecap="round" stroke-miterlimit="10" x1="70.5" y1="79.5" x2="79.5" y2="70.5"/>
<line fill="none" stroke="#FF1744" stroke-width="2" stroke-linecap="round" stroke-miterlimit="10" x1="79.5" y1="79.5" x2="70.5" y2="70.5"/>
<circle fill="none" stroke="#999999" stroke-width="2" stroke-miterlimit="10" cx="125" cy="75" r="3.5"/>
<rect x="150" y="50" fill="none" width="50" height="50"/>
<rect y="100" fill="none" width="50" height="50"/>
<rect x="50" y="100" fill="none" width="450" height="50"/>
<g>
	<path fill="#BCBEC0" stroke="#448AFF" stroke-miterlimit="10" d="M165.293,75"/>
	
		<line fill="none" stroke="#448AFF" stroke-width="2" stroke-linecap="round" stroke-miterlimit="10" x1="165" y1="75" x2="185" y2="75"/>
	
		<line fill="none" stroke="#448AFF" stroke-width="2" stroke-linecap="round" stroke-miterlimit="10" x1="165" y1="75" x2="169.5" y2="70.5"/>
	
		<line fill="none" stroke="#448AFF" stroke-width="2" stroke-linecap="round" stroke-miterlimit="10" x1="169.5" y1="79.5" x2="165" y2="75"/>
</g>
<g>
	
		<line fill="none" stroke="#69F0AE" stroke-width="2" stroke-linecap="round" stroke-miterlimit="10" x1="25" y1="119" x2="25" y2="131"/>
	
		<line fill="none" stroke="#69F0AE" stroke-width="2" stroke-linecap="round" stroke-miterlimit="10" x1="31" y1="125" x2="19" y2="125"/>
</g>
</svg>
